HIERARCHY
ROOT Hips
{
  OFFSET 13.9192 87.0099 7.45665
  CHANNELS 6 Xposition Yposition Zposition Zrotation Xrotation Yrotation
  JOINT RightUpLeg
  {
    OFFSET -9.25892 -1.51126 0.0103963
    CHANNELS 3 Zrotation Xrotation Yrotation
    JOINT RightLeg
    {
      OFFSET -0.0493687 -41.9019 0.103893
      CHANNELS 3 Zrotation Xrotation Yrotation
      JOINT RightFoot
      {
        OFFSET -1.32222 -41.6903 -0.651221
        CHANNELS 3 Zrotation Xrotation Yrotation
        End Site
        {
          OFFSET 0 -7.69 17.5
        }
      }
    }
  }
  JOINT LeftUpLeg
  {
    OFFSET 9.27814 -1.57439 0.0532125
    CHANNELS 3 Zrotation Xrotation Yrotation
    JOINT LeftLeg
    {
      OFFSET 0.0812204 -41.881 0.0464493
      CHANNELS 3 Zrotation Xrotation Yrotation
      JOINT LeftFoot
      {
        OFFSET -0.0110097 -42.3775 0.673629
        CHANNELS 3 Zrotation Xrotation Yrotation
        End Site
        {
          OFFSET 0 -7.69 17.5
        }
      }
    }
  }
  JOINT Spine
  {
    OFFSET 0.0235844 14.3019 0.0112981
    CHANNELS 3 Zrotation Xrotation Yrotation
    JOINT Spine1
    {
      OFFSET 0.0175769 9.71285 0.00895779
      CHANNELS 3 Zrotation Xrotation Yrotation
      JOINT Spine2
      {
        OFFSET 0.0285364 10.1117 0.00103808
        CHANNELS 3 Zrotation Xrotation Yrotation
        JOINT Spine3
        {
          OFFSET 0.0259409 9.72657 0.0104237
          CHANNELS 3 Zrotation Xrotation Yrotation
          JOINT Neck
          {
            OFFSET -0.0111787 10.3773 0.0255796
            CHANNELS 3 Zrotation Xrotation Yrotation
            JOINT Head
            {
              OFFSET -0.00267722 9.48908 0.0510269
              CHANNELS 3 Zrotation Xrotation Yrotation
              End Site
              {
                OFFSET 0 15.95 0
              }
            }
          }
          JOINT RightShoulder
          {
            OFFSET -3.1909 6.94591 0.0199124
            CHANNELS 3 Zrotation Xrotation Yrotation
            JOINT RightArm
            {
              OFFSET -12.7524 0.0197095 0.0110528
              CHANNELS 3 Zrotation Xrotation Yrotation
              JOINT RightForeArm
              {
                OFFSET -26.4891 -0.0606575 0.0254635
                CHANNELS 3 Zrotation Xrotation Yrotation
                JOINT RightHand
                {
                  OFFSET -26.017 -0.0465962 -0.00264686
                  CHANNELS 3 Zrotation Xrotation Yrotation
                  JOINT RightHandThumb1
                  {
                    OFFSET -2.48905 0.190105 3.12053
                    CHANNELS 3 Zrotation Xrotation Yrotation
                    JOINT RightHandThumb2
                    {
                      OFFSET -3.68274 0 0
                      CHANNELS 3 Zrotation Xrotation Yrotation
                      JOINT RightHandThumb3
                      {
                        OFFSET -2.55832 0 0
                        CHANNELS 3 Zrotation Xrotation Yrotation
                        End Site
                        {
                          OFFSET -2.194 0 0
                        }
                      }
                    }
                  }
                  JOINT RightInHandIndex
                  {
                    OFFSET -3.22368 0.508421 1.97842
                    CHANNELS 3 Zrotation Xrotation Yrotation
                    JOINT RightHandIndex1
                    {
                      OFFSET -5.21684 -0.091368 0.999158
                      CHANNELS 3 Zrotation Xrotation Yrotation
                      JOINT RightHandIndex2
                      {
                        OFFSET -3.61937 0 0
                        CHANNELS 3 Zrotation Xrotation Yrotation
                        JOINT RightHandIndex3
                        {
                          OFFSET -2.0521 0 0
                          CHANNELS 3 Zrotation Xrotation Yrotation
                          End Site
                          {
                            OFFSET -1.805 0 0
                          }
                        }
                      }
                    }
                  }
                  JOINT RightInHandMiddle
                  {
                    OFFSET -3.38211 0.517263 0.756737
                    CHANNELS 3 Zrotation Xrotation Yrotation
                    JOINT RightHandMiddle1
                    {
                      OFFSET -5.17411 -0.084 0.313895
                      CHANNELS 3 Zrotation Xrotation Yrotation
                      JOINT RightHandMiddle2
                      {
                        OFFSET -3.94947 0 0
                        CHANNELS 3 Zrotation Xrotation Yrotation
                        JOINT RightHandMiddle3
                        {
                          OFFSET -2.47579 0 0
                          CHANNELS 3 Zrotation Xrotation Yrotation
                          End Site
                          {
                            OFFSET -1.975 0 0
                          }
                        }
                      }
                    }
                  }
                  JOINT RightInHandRing
                  {
                    OFFSET -3.36516 0.537895 -0.128947
                    CHANNELS 3 Zrotation Xrotation Yrotation
                    JOINT RightHandRing1
                    {
                      OFFSET -4.63474 -0.022105 -0.478947
                      CHANNELS 3 Zrotation Xrotation Yrotation
                      JOINT RightHandRing2
                      {
                        OFFSET -3.44238 0 0
                        CHANNELS 3 Zrotation Xrotation Yrotation
                        JOINT RightHandRing3
                        {
                          OFFSET -2.3881 0 0
                          CHANNELS 3 Zrotation Xrotation Yrotation
                          End Site
                          {
                            OFFSET -1.857 0 0
                          }
                        }
                      }
                    }
                  }
                  JOINT RightInHandPinky
                  {
                    OFFSET -3.16105 0.469368 -1.20179
                    CHANNELS 3 Zrotation Xrotation Yrotation
                    JOINT RightHandPinky1
                    {
                      OFFSET -4.14105 -0.022105 -1.09053
                      CHANNELS 3 Zrotation Xrotation Yrotation
                      JOINT RightHandPinky2
                      {
                        OFFSET -2.75653 0 0
                        CHANNELS 3 Zrotation Xrotation Yrotation
                        JOINT RightHandPinky3
                        {
                          OFFSET -1.74189 0 0
                          CHANNELS 3 Zrotation Xrotation Yrotation
                          End Site
                          {
                            OFFSET -1.645 0 0
                          }
                        }
                      }
                    }
                  }
                }
              }
            }
          }
          JOINT LeftShoulder
          {
            OFFSET 3.2161 6.92611 -0.00186679
            CHANNELS 3 Zrotation Xrotation Yrotation
            JOINT LeftArm
            {
              OFFSET 12.7484 -0.0283569 -0.0302446
              CHANNELS 3 Zrotation Xrotation Yrotation
              JOINT LeftForeArm
              {
                OFFSET 26.4766 -0.0880322 -0.0033192
                CHANNELS 3 Zrotation Xrotation Yrotation
                JOINT LeftHand
                {
                  OFFSET 26.0079 -0.0456134 -0.0735001
                  CHANNELS 3 Zrotation Xrotation Yrotation
                  JOINT LeftHandThumb1
                  {
                    OFFSET 2.48905 0.190105 3.12053
                    CHANNELS 3 Zrotation Xrotation Yrotation
                    JOINT LeftHandThumb2
                    {
                      OFFSET 3.68274 0 0
                      CHANNELS 3 Zrotation Xrotation Yrotation
                      JOINT LeftHandThumb3
                      {
                        OFFSET 2.55832 0 0
                        CHANNELS 3 Zrotation Xrotation Yrotation
                        End Site
                        {
                          OFFSET 2.194 0 0
                        }
                      }
                    }
                  }
                  JOINT LeftInHandIndex
                  {
                    OFFSET 3.22368 0.508421 1.97842
                    CHANNELS 3 Zrotation Xrotation Yrotation
                    JOINT LeftHandIndex1
                    {
                      OFFSET 5.21684 -0.091368 0.999158
                      CHANNELS 3 Zrotation Xrotation Yrotation
                      JOINT LeftHandIndex2
                      {
                        OFFSET 3.61937 0 0
                        CHANNELS 3 Zrotation Xrotation Yrotation
                        JOINT LeftHandIndex3
                        {
                          OFFSET 2.0521 0 0
                          CHANNELS 3 Zrotation Xrotation Yrotation
                          End Site
                          {
                            OFFSET 1.805 0 0
                          }
                        }
                      }
                    }
                  }
                  JOINT LeftInHandMiddle
                  {
                    OFFSET 3.38211 0.517263 0.756737
                    CHANNELS 3 Zrotation Xrotation Yrotation
                    JOINT LeftHandMiddle1
                    {
                      OFFSET 5.17411 -0.084 0.313895
                      CHANNELS 3 Zrotation Xrotation Yrotation
                      JOINT LeftHandMiddle2
                      {
                        OFFSET 3.94947 0 0
                        CHANNELS 3 Zrotation Xrotation Yrotation
                        JOINT LeftHandMiddle3
                        {
                          OFFSET 2.47579 0 0
                          CHANNELS 3 Zrotation Xrotation Yrotation
                          End Site
                          {
                            OFFSET 1.975 0 0
                          }
                        }
                      }
                    }
                  }
                  JOINT LeftInHandRing
                  {
                    OFFSET 3.36516 0.537895 -0.128947
                    CHANNELS 3 Zrotation Xrotation Yrotation
                    JOINT LeftHandRing1
                    {
                      OFFSET 4.63474 -0.022105 -0.478947
                      CHANNELS 3 Zrotation Xrotation Yrotation
                      JOINT LeftHandRing2
                      {
                        OFFSET 3.44238 0 0
                        CHANNELS 3 Zrotation Xrotation Yrotation
                        JOINT LeftHandRing3
                        {
                          OFFSET 2.3881 0 0
                          CHANNELS 3 Zrotation Xrotation Yrotation
                          End Site
                          {
                            OFFSET 1.857 0 0
                          }
                        }
                      }
                    }
                  }
                  JOINT LeftInHandPinky
                  {
                    OFFSET 3.16105 0.469368 -1.20179
                    CHANNELS 3 Zrotation Xrotation Yrotation
                    JOINT LeftHandPinky1
                    {
                      OFFSET 4.14105 -0.022105 -1.09053
                      CHANNELS 3 Zrotation Xrotation Yrotation
                      JOINT LeftHandPinky2
                      {
                        OFFSET 2.75653 0 0
                        CHANNELS 3 Zrotation Xrotation Yrotation
                        JOINT LeftHandPinky3
                        {
                          OFFSET 1.74189 0 0
                          CHANNELS 3 Zrotation Xrotation Yrotation
                          End Site
                          {
                            OFFSET 1.645 0 0
                          }
                        }
                      }
                    }
                  }
                }
              }
            }
          }
        }
      }
    }
  }
}
MOTION
Frames: 3
Frame Time: 0.00833333
1.519887999999999920e+03 8.620910000000000650e+01 8.451269999999999172e+00 3.020090000000000074e+01 -1.223690000000000033e+01 -1.193059999999999974e+02 5.866080000000001071e+00 -6.747530000000001849e+01 2.358460000000000178e+01 9.551320000000000476e+00 3.886599999999999255e+01 -2.805470000000000041e+01 5.173099999999998921e+00 -4.883869999999999933e+00 2.943610000000000326e+01 2.630280000000000129e+01 -6.324790000000000134e+01 1.857979999999999876e+01 7.054529999999998857e+00 3.502679999999999438e+01 4.131380000000000940e+00 -1.283709999999999951e+01 -1.676769999999999927e-01 -3.971899999999999764e+00 2.137430000000000163e+00 1.472049999999999947e+01 -3.030120000000002811e-02 5.203729999999999745e-01 3.707860000000000156e+00 1.369199999999999862e-01 8.561810000000000809e-01 6.063069999999998849e+00 2.928190000000000515e-01 -5.532529999999999948e-01 3.899160000000000403e-01 -3.922580000000000511e-01 -5.545379999999999754e-01 3.834179999999999255e-01 -3.980059999999998599e-01 -9.677149999999999253e+00 6.753129999999998745e+00 -7.550849999999999618e+00 7.274079999999999657e+00 4.822239999999999860e-02 6.494279999999998942e+00 6.346800000000000352e+01 2.299889999999999901e+01 6.582380000000000564e+01 -4.497320000000000206e+00 -2.941540000000000177e+01 -5.766379999999999839e+00 9.195560000000002177e+00 -2.849520000000000408e+01 4.668420000000001124e+00 2.818400000000000105e+01 1.072940000000000005e+01 1.915919999999999845e+01 5.608180000000006654e-16 3.180550000000000771e-15 -1.000000000000000000e+01 -3.722790000000001472e-15 6.361110000000000530e-15 -1.000000000000000000e+01 -3.975689999999998936e-15 0.000000000000000000e+00 1.590280000000000274e-15 1.998179999999999978e+01 8.718970000000000331e-01 2.396399999999999864e+00 2.400000000000000000e+01 1.590280000000000077e-15 -9.541660000000000512e-15 2.000000000000000000e+01 1.590280000000000274e-15 0.000000000000000000e+00 -3.975689999999998936e-15 0.000000000000000000e+00 1.590280000000000274e-15 2.000000000000000000e+01 3.180550000000000771e-15 -3.180550000000000771e-15 2.400000000000000000e+01 -1.590279999999999485e-15 3.180549999999999587e-15 2.000000000000000000e+01 -3.478730000000000421e-15 -6.361110000000001319e-15 -3.975689999999998936e-15 0.000000000000000000e+00 1.590280000000000274e-15 1.997479999999999833e+01 -1.025649999999999951e+00 -2.819380000000000219e+00 2.400000000000000000e+01 3.975689999999999725e-15 -6.361110000000001319e-15 2.000000000000000000e+01 4.770830000000000256e-15 6.361109999999999741e-15 -3.975689999999998936e-15 0.000000000000000000e+00 1.590280000000000274e-15 1.978150000000000119e+01 -3.009479999999999933e+00 -8.305149999999999366e+00 2.400000000000000000e+01 5.565969999999999999e-15 -1.590280000000000116e-14 2.000000000000000000e+01 -3.180550000000000771e-15 -9.541660000000000512e-15 -1.790070000000000405e+01 -1.016339999999999932e+01 -1.412829999999999941e+01 -3.160030000000000427e+01 4.910079999999999956e+01 -6.019289999999999452e+01 -4.510810000000000741e+01 -7.471739999999998361e+01 -5.411840000000000828e+01 -6.240339999999999065e+01 -6.023169999999999646e+01 -7.202880000000000393e+01 -2.818400000000000105e+01 1.072940000000000005e+01 -1.915919999999999845e+01 -6.459239999999996466e-15 0.000000000000000000e+00 1.000000000000000000e+01 4.070850000000000269e-15 -4.770829999999999467e-15 1.000000000000000000e+01 3.180550000000000771e-15 -3.180549999999999982e-15 0.000000000000000000e+00 -1.998179999999999978e+01 8.718970000000000331e-01 -2.396399999999999864e+00 -2.400000000000000000e+01 -3.578119999999999853e-15 -3.180550000000000771e-15 -2.000000000000000000e+01 3.180550000000000771e-15 0.000000000000000000e+00 3.180550000000000771e-15 -3.180549999999999982e-15 0.000000000000000000e+00 -2.000000000000000000e+01 4.770830000000001834e-15 9.541659999999998934e-15 -2.400000000000000000e+01 1.590280000000000274e-15 -6.361109999999999741e-15 -2.000000000000000000e+01 0.000000000000000000e+00 -6.361109999999999741e-15 3.180550000000000771e-15 -3.180549999999999982e-15 0.000000000000000000e+00 -1.997479999999999833e+01 -1.025649999999999951e+00 2.819380000000000219e+00 -2.400000000000000000e+01 -5.565969999999999999e-15 -9.541660000000000512e-15 -2.000000000000000000e+01 0.000000000000000000e+00 -9.541660000000003667e-15 3.180550000000000771e-15 -3.180549999999999982e-15 0.000000000000000000e+00 -1.978150000000000119e+01 -3.009479999999999933e+00 8.305149999999999366e+00 -2.400000000000000000e+01 1.590279999999999485e-15 0.000000000000000000e+00 -2.000000000000000000e+01 0.000000000000000000e+00 0.000000000000000000e+00
1.519886199999999917e+03 8.621650000000001057e+01 8.456949999999999079e+00 3.019600000000000151e+01 -1.225050000000000061e+01 -1.193379999999999939e+02 5.929970000000000852e+00 -6.746580000000001576e+01 2.365240000000000009e+01 9.526279999999998083e+00 3.883149999999999835e+01 -2.804259999999999664e+01 5.172229999999998995e+00 -4.852800000000000225e+00 2.944579999999999842e+01 2.633859999999999957e+01 -6.322330000000000894e+01 1.858689999999999998e+01 7.030940000000000190e+00 3.500900000000000034e+01 4.179540000000001143e+00 -1.283720000000000105e+01 -1.651499999999999913e-01 -3.960419999999999607e+00 2.143589999999999662e+00 1.471419999999999995e+01 -5.132809999999987660e-02 5.209700000000001552e-01 3.707629999999999981e+00 1.316780000000000173e-01 8.573539999999999495e-01 6.062759999999999927e+00 2.838980000000000392e-01 -5.559869999999998980e-01 3.900169999999999471e-01 -3.905100000000000238e-01 -5.572800000000001086e-01 3.834480000000000666e-01 -3.962740000000000151e-01 -9.729509999999997660e+00 6.758059999999999512e+00 -7.509290000000000020e+00 7.263269999999999449e+00 5.620300000000011398e-02 6.486280000000000712e+00 6.349999999999999289e+01 2.300059999999999860e+01 6.576529999999999632e+01 -4.440930000000000710e+00 -2.949509999999999366e+01 -5.672460000000000058e+00 9.200460000000001415e+00 -2.849899999999999878e+01 4.661139999999999617e+00 2.818400000000000105e+01 1.072940000000000005e+01 1.915919999999999845e+01 -3.229619999999999811e-15 0.000000000000000000e+00 -1.000000000000000000e+01 -2.175630000000001394e-15 -3.180550000000000376e-15 -1.000000000000000000e+01 -1.590280000000000274e-15 -3.180550000000001560e-15 -1.590280000000000274e-15 1.998179999999999978e+01 8.718970000000000331e-01 2.396399999999999864e+00 2.400000000000000000e+01 0.000000000000000000e+00 6.361109999999999741e-15 2.000000000000000000e+01 -1.391489999999999661e-15 0.000000000000000000e+00 -1.590280000000000274e-15 -3.180550000000001560e-15 -1.590280000000000274e-15 2.000000000000000000e+01 -3.180550000000000771e-15 9.541660000000002090e-15 2.400000000000000000e+01 7.951389999999999226e-15 -3.180549999999999982e-15 2.000000000000000000e+01 1.242399999999999836e-15 9.541660000000000512e-15 -1.590280000000000274e-15 -3.180550000000001560e-15 -1.590280000000000274e-15 1.997479999999999833e+01 -1.025649999999999951e+00 -2.819380000000000219e+00 2.400000000000000000e+01 0.000000000000000000e+00 0.000000000000000000e+00 2.000000000000000000e+01 2.782989999999999493e-15 3.180549999999999982e-15 -1.590280000000000274e-15 -3.180550000000001560e-15 -1.590280000000000274e-15 1.978150000000000119e+01 -3.009479999999999933e+00 -8.305149999999999366e+00 2.400000000000000000e+01 3.180549999999999587e-15 2.226389999999999639e-14 2.000000000000000000e+01 -7.951390000000002185e-16 9.541660000000002090e-15 -1.788619999999999877e+01 -1.016499999999999915e+01 -1.412270000000000003e+01 -3.158920000000000528e+01 4.912639999999998963e+01 -6.021720000000000539e+01 -4.497800000000000864e+01 -7.471290000000000475e+01 -5.399299999999999500e+01 -6.236850000000000449e+01 -6.024499999999999034e+01 -7.201000000000000512e+01 -2.818400000000000105e+01 1.072940000000000005e+01 -1.915919999999999845e+01 -1.121640000000000611e-15 6.361109999999999741e-15 1.000000000000000000e+01 1.126979999999999707e-14 4.770830000000000256e-15 1.000000000000000000e+01 1.590279999999999682e-15 -3.180549999999999982e-15 3.180549999999999982e-15 -1.998179999999999978e+01 8.718970000000000331e-01 -2.396399999999999864e+00 -2.400000000000000000e+01 1.987850000000000145e-15 3.180550000000000771e-15 -2.000000000000000000e+01 0.000000000000000000e+00 6.361109999999999741e-15 1.590279999999999682e-15 -3.180549999999999982e-15 3.180549999999999982e-15 -2.000000000000000000e+01 -3.975689999999999725e-15 -6.361109999999999741e-15 -2.400000000000000000e+01 -7.951389999999999226e-16 6.361109999999999741e-15 -2.000000000000000000e+01 0.000000000000000000e+00 3.180549999999999982e-15 1.590279999999999682e-15 -3.180549999999999982e-15 3.180549999999999982e-15 -1.997479999999999833e+01 -1.025649999999999951e+00 2.819380000000000219e+00 -2.400000000000000000e+01 -7.156249999999997906e-15 9.541660000000000512e-15 -2.000000000000000000e+01 3.180550000000000376e-15 0.000000000000000000e+00 1.590279999999999682e-15 -3.180549999999999982e-15 3.180549999999999982e-15 -1.978150000000000119e+01 -3.009479999999999933e+00 8.305149999999999366e+00 -2.400000000000000000e+01 -3.180549999999997615e-15 3.180550000000000771e-15 -2.000000000000000000e+01 0.000000000000000000e+00 1.272219999999999835e-14
1.519884399999999914e+03 8.622379999999999711e+01 8.461909999999999599e+00 3.019539999999999935e+01 -1.226640000000000086e+01 -1.193700000000000045e+02 5.982179999999999609e+00 -6.745969999999998379e+01 2.371490000000000009e+01 9.503640000000002530e+00 3.879559999999999320e+01 -2.803059999999999619e+01 5.174300000000000566e+00 -4.822059999999999569e+00 2.945110000000000383e+01 2.637240000000000606e+01 -6.320439999999999969e+01 1.859140000000000015e+01 7.002650000000000041e+00 3.500229999999999819e+01 4.231489999999999974e+00 -1.283750000000000213e+01 -1.654549999999999910e-01 -3.960890000000000022e+00 2.149820000000000064e+00 1.470570000000000022e+01 -7.281910000000002547e-02 5.215689999999999493e-01 3.707439999999999625e+00 1.261230000000000406e-01 8.585730000000000306e-01 6.058460000000000178e+00 2.743599999999999928e-01 -5.586510000000000087e-01 3.901089999999999280e-01 -3.894870000000000276e-01 -5.599600000000001243e-01 3.834659999999999735e-01 -3.952629999999999200e-01 -9.785539999999999239e+00 6.762710000000000221e+00 -7.476709999999999745e+00 7.260989999999999611e+00 6.113599999999996815e-02 6.472439999999999749e+00 6.354490000000000549e+01 2.301289999999999836e+01 6.569509999999999650e+01 -4.390900000000002024e+00 -2.959080000000000155e+01 -5.568929999999999936e+00 9.286900000000001043e+00 -2.878049999999999997e+01 4.760139999999999816e+00 2.818400000000000105e+01 1.072940000000000005e+01 1.915919999999999845e+01 -1.031730000000000063e-14 -1.272219999999999835e-14 -1.000000000000000000e+01 2.668799999999997928e-15 -3.180549999999999982e-15 -1.000000000000000000e+01 -1.590280000000000274e-15 -3.180549999999999982e-15 0.000000000000000000e+00 1.998179999999999978e+01 8.718970000000000331e-01 2.396399999999999864e+00 2.400000000000000000e+01 0.000000000000000000e+00 -3.180549999999997615e-15 2.000000000000000000e+01 2.385419999999999622e-15 6.361110000000001319e-15 -1.590280000000000274e-15 -3.180549999999999982e-15 0.000000000000000000e+00 2.000000000000000000e+01 -3.180550000000000771e-15 6.361109999999998163e-15 2.400000000000000000e+01 1.590279999999999485e-15 6.361109999999999741e-15 2.000000000000000000e+01 2.335720000000000018e-15 0.000000000000000000e+00 -1.590280000000000274e-15 -3.180549999999999982e-15 0.000000000000000000e+00 1.997479999999999833e+01 -1.025649999999999951e+00 -2.819380000000000219e+00 2.400000000000000000e+01 7.951389999999999226e-16 0.000000000000000000e+00 2.000000000000000000e+01 3.180549999999999982e-15 6.361109999999999741e-15 -1.590280000000000274e-15 -3.180549999999999982e-15 0.000000000000000000e+00 1.978150000000000119e+01 -3.009479999999999933e+00 -8.305149999999999366e+00 2.400000000000000000e+01 3.180549999999999982e-15 0.000000000000000000e+00 2.000000000000000000e+01 1.590280000000000668e-15 3.180550000000000771e-15 -1.786570000000000391e+01 -1.016579999999999906e+01 -1.411760000000000126e+01 -3.157600000000000406e+01 4.915729999999999933e+01 -6.025269999999999015e+01 -4.480069999999999908e+01 -7.471910000000001162e+01 -5.382750000000000057e+01 -6.231459999999999866e+01 -6.027150000000000318e+01 -7.198609999999999332e+01 -2.818400000000000105e+01 1.072940000000000005e+01 -1.915919999999999845e+01 2.388389999999999353e-15 4.770830000000000256e-15 1.000000000000000000e+01 7.266639999999996136e-15 0.000000000000000000e+00 1.000000000000000000e+01 3.180549999999999587e-15 0.000000000000000000e+00 3.180549999999999193e-15 -1.998179999999999978e+01 8.718970000000000331e-01 -2.396399999999999864e+00 -2.400000000000000000e+01 2.782989999999999888e-15 0.000000000000000000e+00 -2.000000000000000000e+01 -3.180549999999999193e-15 -3.180549999999999982e-15 3.180549999999999587e-15 0.000000000000000000e+00 3.180549999999999193e-15 -2.000000000000000000e+01 -1.590280000000000471e-15 0.000000000000000000e+00 -2.400000000000000000e+01 -3.975689999999998936e-15 -9.541660000000000512e-15 -2.000000000000000000e+01 -1.590280000000000274e-15 -3.180549999999999193e-15 3.180549999999999587e-15 0.000000000000000000e+00 3.180549999999999193e-15 -1.997479999999999833e+01 -1.025649999999999951e+00 2.819380000000000219e+00 -2.400000000000000000e+01 -1.590280000000001063e-15 -3.180550000000000771e-15 -2.000000000000000000e+01 -4.770830000000000256e-15 3.180550000000000771e-15 3.180549999999999587e-15 0.000000000000000000e+00 3.180549999999999193e-15 -1.978150000000000119e+01 -3.009479999999999933e+00 8.305149999999999366e+00 -2.400000000000000000e+01 6.361110000000001319e-15 -3.180550000000000771e-15 -2.000000000000000000e+01 0.000000000000000000e+00 6.361110000000001319e-15
